<svg xmlns="http://www.w3.org/2000/svg" width="27.58" height="25" viewBox="0 0 27.58 25">
  <g id="icon-warnning" transform="translate(0)">
    <path id="路径_1464" data-name="路径 1464" d="M27.024,42.707,17.4,26.03a4.161,4.161,0,0,0-7.212,0L.556,42.707a4.161,4.161,0,0,0,3.606,6.239H23.418a4.161,4.161,0,0,0,3.606-6.239Z" transform="translate(0 -23.946)" fill="#3b4145"/>
    <path id="路径_1465" data-name="路径 1465" d="M269.914,72.6,259.576,56.115a2.734,2.734,0,0,0-2.247-1.237L266.171,76.3h1.419a2.585,2.585,0,0,0,2.681-2.469A2.319,2.319,0,0,0,269.914,72.6Z" transform="translate(-244.48 -53.089)" fill="#ffb751"/>
    <path id="路径_1466" data-name="路径 1466" d="M52.84,72.572a2.783,2.783,0,0,1,.283,1.231A2.317,2.317,0,0,1,51,76.272H33.362a2.471,2.471,0,0,1-2.129-3.7L40.7,56.085a2.465,2.465,0,0,1,2.129-1.238l.07,0a2.106,2.106,0,0,1,1.766,1.237Z" transform="translate(-29.118 -53.06)" fill="#ffd764"/>
    <path id="路径_1467" data-name="路径 1467" d="M233.224,355.621a1.49,1.49,0,1,0-1.49,1.49h0A1.489,1.489,0,0,0,233.224,355.621Z" transform="translate(-217.945 -336.509)" fill="#3b4145"/>
    <path id="路径_1468" data-name="路径 1468" d="M231.735,132.646a1.489,1.489,0,0,0-1.49,1.49v8.044a1.49,1.49,0,1,0,2.979,0v-8.044A1.489,1.489,0,0,0,231.735,132.646Z" transform="translate(-217.945 -127.092)" fill="#3b4145"/>
  </g>
</svg>
