<svg xmlns="http://www.w3.org/2000/svg" width="22.858" height="32" viewBox="0 0 22.858 32">
  <path id="path1802" d="M107.129,32.933a1.516,1.516,0,0,0-1.079.5,1.986,1.986,0,0,0-.5.646h6.588a2,2,0,0,0-.482-.637,1.561,1.561,0,0,0-1.1-.506Zm-3.485,2.286a.572.572,0,0,0-.515.569v3.43a.572.572,0,0,0,.569.569h10.859a.571.571,0,0,0,.569-.569v-3.43a.571.571,0,0,0-.569-.569H103.644Zm-4.516,1.713a1.723,1.723,0,0,0-1.714,1.714V63.219a1.723,1.723,0,0,0,1.714,1.714h19.429a1.723,1.723,0,0,0,1.714-1.714V38.647a1.723,1.723,0,0,0-1.714-1.714h-2.288v2.286a1.714,1.714,0,0,1-1.712,1.712H103.7a1.715,1.715,0,0,1-1.712-1.712V36.932Zm5.163,5.136h0a.571.571,0,0,1,.436.921l-1.713,2.286a.572.572,0,0,1-.865.059L101.008,44.2a.573.573,0,0,1,.81-.81l.675.675,1.32-1.754a.571.571,0,0,1,.421-.237h.057Zm2.209,1.722h10.344a.572.572,0,0,1,0,1.143H106.555a.572.572,0,0,1-.055-1.143Zm-2.209,2.851h0a.571.571,0,0,1,.436.921l-1.713,2.286a.572.572,0,0,1-.865.059l-1.143-1.143a.572.572,0,0,1,.794-.822l.016.016.675.675,1.32-1.759a.572.572,0,0,1,.421-.232Zm2.263,1.718h10.289a.572.572,0,0,1,0,1.143H106.555a.572.572,0,1,1-.025-1.143Zm-2.3,2.852h.042a.572.572,0,0,1,.435.924l-1.713,2.282a.571.571,0,0,1-.8.119.554.554,0,0,1-.066-.057l-1.143-1.143a.573.573,0,0,1,.81-.81h0l.679.68,1.317-1.759a.572.572,0,0,1,.438-.237Zm2.3,1.721h10.289a.572.572,0,1,1,.025,1.143H106.555a.572.572,0,0,1-.025-1.143Zm-2.263,2.851h0a.571.571,0,0,1,.436.921l-1.713,2.287a.572.572,0,0,1-.865.062l-1.143-1.143a.573.573,0,0,1,.81-.81h0l.679.68,1.317-1.759a.571.571,0,0,1,.421-.237h.057ZM106.5,57.5h10.344a.572.572,0,0,1,0,1.144H106.555A.573.573,0,0,1,106.5,57.5Z" transform="translate(-97.414 -32.933)" fill="#fff"/>
</svg>
