<svg width="90" height="90" viewBox="0 0 90 90" fill="none" xmlns="http://www.w3.org/2000/svg">
<rect width="90" height="90" rx="12" fill="white"/>
<path fill-rule="evenodd" clip-rule="evenodd" d="M61.7889 40.4791L61.6312 40.881C58.9451 46.0269 54.1863 49.1845 47.3981 49.3238C44.2248 49.3881 41.201 48.5871 39.226 47.7157C34.9632 45.8313 31.378 42.3366 29.4199 38.6027C26.6111 33.2501 26.1046 25.8043 31.9448 20.2429C32.0348 20.2429 31.2365 21.4488 31.3265 21.4488L31.1657 21.9634C26.9572 34.9279 39.9232 46.0379 52.5273 44.7673C55.5564 44.462 59.4193 42.8296 61.7889 40.4791Z" fill="#21609B"/>
<path fill-rule="evenodd" clip-rule="evenodd" d="M54.1616 35.1182C57.3327 35.1398 60.6448 33.6815 62.606 31.6341C60.8902 35.92 55.9217 38.675 49.2586 37.7987C43.6799 37.0642 38.3653 31.5402 37.8177 26.0053C37.4174 21.977 38.8445 19.5728 41.1957 16.6566C40.3785 18.1818 40.0731 19.3582 39.997 20.1085C39.1037 28.8223 47.0712 35.0728 54.1616 35.1182Z" fill="#21609B"/>
<path fill-rule="evenodd" clip-rule="evenodd" d="M62.2876 24.2953C61.7946 25.4078 58.9562 27.5089 57.703 27.7715C52.7399 28.8117 49.5612 26.496 47.8965 23.8609C47.6488 23.467 47.1912 22.3924 47.1093 22.1189C46.4636 19.9587 46.7605 16.6914 48.6867 15C48.1065 16.6081 48.0219 18.4762 48.3272 19.6904C48.5122 20.4249 49.0759 21.7064 49.6401 22.5128C50.6668 23.9816 51.3179 24.3385 52.6365 25.1183C53.2302 25.4694 53.8674 25.751 54.1428 25.8285C55.393 26.1903 58.0325 27.1445 62.2876 24.2953Z" fill="#21609B"/>
<path fill-rule="evenodd" clip-rule="evenodd" d="M77.2307 56.4044L81 56.4248C81 56.4248 73.9922 65.7712 73.42 66.5329C73.2342 66.7796 72.9518 67.0456 72.8087 67.3754C72.4468 68.2044 72.0752 70.0227 72.0752 70.0227L68.6264 70.0396C68.6264 70.0396 69.163 68.1442 69.1409 67.1346C69.1214 66.2526 68.6641 65.3718 68.4074 64.4872C68.1482 63.592 67.7961 61.8399 67.7961 61.8399H71.3417L71.8306 63.7653L77.2307 56.4044Z" fill="#1A1918"/>
<path fill-rule="evenodd" clip-rule="evenodd" d="M70.0934 58.3755C70.789 58.7883 71.2158 61.0651 71.2158 61.0651C71.2158 61.0651 67.5762 61.1179 65.5955 61.1179H63.8839L61.8055 70.0228H58.6269C58.6269 70.0228 60.6049 60.3455 61.072 58.5909C61.2235 58.023 62.1088 58.1204 63.6039 58.1204H65.9916C67.5334 58.1204 69.3354 57.9267 70.0934 58.3755Z" fill="#1A1918"/>
<path fill-rule="evenodd" clip-rule="evenodd" d="M55.2953 62.7124C55.2953 62.7124 55.3943 62.1407 54.959 61.4789C54.5874 60.9145 54.244 60.7834 53.2659 60.7533C50.5041 60.6679 50.5577 62.6823 50.5577 62.6823L55.2953 62.7124ZM58.2906 60.4056C58.6954 61.8424 57.9239 65.2189 57.9239 65.2189C57.9239 65.2189 53.8954 65.1527 51.6887 65.2189C51.0027 65.2395 50.1813 65.1455 49.9771 65.4596C49.6898 65.9 50.0821 66.5776 50.4147 66.8639C50.7975 67.1936 51.5431 67.231 51.8109 67.2646C53.6019 67.4885 57.3505 67.3224 57.3505 67.3224L56.7012 70.1525C56.7012 70.1525 51.404 70.4138 48.7545 69.7915C48.2313 69.6689 47.741 69.421 47.4096 69.0696C47.3192 68.9734 47.2408 68.8423 47.1552 68.7291C47.0869 68.6387 46.8877 68.3416 46.7983 68.1069C46.1932 66.5197 46.8692 63.4789 47.5318 61.8496C47.6088 61.6606 47.7055 61.4213 47.8071 61.2178C47.9341 60.964 48.0417 60.6776 48.1432 60.5259C48.2115 60.4212 48.2961 60.3538 48.367 60.2551C48.4488 60.1384 48.5441 60.0252 48.6323 59.9243C48.8767 59.645 49.1542 59.4476 49.488 59.2023C50.5919 58.3888 52.5897 57.757 54.9896 57.9989C55.8931 58.0903 57.2576 58.408 57.9239 59.3226C58.1023 59.5669 58.1903 60.0517 58.2906 60.4056Z" fill="#1A1918"/>
<path fill-rule="evenodd" clip-rule="evenodd" d="M43.7113 58.1095L46.7935 58.0915C46.7935 58.0915 45.0758 66.1118 44.2004 70.0228H40.6548C38.1767 70.0228 35.97 70.3248 35.031 68.5786C34.1203 66.8832 34.9895 64.095 35.3978 62.2009C35.6864 60.8604 36.2941 58.1204 36.2941 58.1204L39.4874 58.0915C39.4874 58.0915 38.5851 62.3573 38.2097 64.4873C38.0753 65.2502 37.7979 65.9686 38.0875 66.5329C38.3626 67.0698 38.7477 67.1082 39.9213 67.1347C40.2931 67.1431 41.5107 67.1347 41.5107 67.1347L43.7113 58.1095Z" fill="#1A1918"/>
<path fill-rule="evenodd" clip-rule="evenodd" d="M29.2849 63.8856C29.6077 62.7569 30.0783 61.5331 30.0184 60.5162C29.9537 59.4285 29.0271 58.4381 28.4292 58.23C26.6284 57.6041 24.9425 58.479 24.2725 59.1925C23.4055 60.1168 23.1121 61.1962 22.8052 62.6823C22.5767 63.7857 22.3896 64.9505 22.8052 65.811C23.5412 67.3321 25.836 66.9999 28.3068 67.0144C28.6736 66.0469 28.9768 64.9602 29.2849 63.8856ZM33.564 59.4332C33.9161 61.953 32.5652 64.7341 31.6348 67.1527C32.5835 67.2369 33.4149 67.1396 33.4748 67.2092C33.5371 67.2996 32.839 70.0961 32.5956 70.1033C31.8426 70.1226 29.3474 70.143 28.3068 70.143C24.9117 70.143 21.7355 70.3608 20.1157 68.6991C19.458 68.024 19.0032 66.8662 18.8931 66.0517C18.7096 64.6918 18.9395 63.1948 19.2598 61.9603C19.5496 60.8459 19.9212 59.7942 20.4825 58.8315C21.9091 56.3803 24.391 54.5609 28.5514 54.9809C29.3583 55.0627 30.5172 55.4105 31.2411 55.8231C31.2911 55.8522 31.4662 55.9893 31.5064 56.0134C32.4845 56.626 33.3757 58.0879 33.564 59.4332Z" fill="#1A1918"/>
<path fill-rule="evenodd" clip-rule="evenodd" d="M18.5422 58.124C18.3368 59.0445 18.1314 60.0879 17.915 60.9976H14.4917C14.757 59.9892 14.96 58.9868 15.2253 58.1095C16.3207 58.1095 17.3392 58.124 18.5422 58.124Z" fill="#1A1918"/>
<path fill-rule="evenodd" clip-rule="evenodd" d="M14.3696 61.8399H17.6704C17.2389 64.1913 16.3844 67.9842 15.7144 70.6243C15.295 72.2765 15.0151 73.4823 13.8804 74.3547C13.7789 74.433 13.7204 74.3958 13.636 74.4751C13.4268 74.6713 12.4598 74.8988 11.9244 74.9564C11.0539 75.0491 10.0697 74.9684 8.99999 74.9469C9.27994 73.9397 9.59665 72.7303 9.84605 71.8277C12.4538 72.1383 12.5199 69.7122 13.0247 67.3754C13.3169 66.0252 14.2021 62.3815 14.3696 61.8399Z" fill="#1A1918"/>
</svg>
