<svg width="90" height="90" viewBox="0 0 90 90" fill="none" xmlns="http://www.w3.org/2000/svg">
<rect width="90" height="90" rx="16" fill="white"/>
<path d="M21.4899 34.5242L33.7681 68.1593C25.1855 63.9919 19.2641 55.1855 19.2641 45C19.2607 41.3904 20.0192 37.8206 21.4899 34.5242ZM62.371 43.6996C62.371 40.5181 61.2278 38.3165 60.248 36.6048C58.9476 34.4819 57.7258 32.6855 57.7258 30.5685C57.7258 28.2036 59.5161 26.002 62.0444 26.002C62.1593 26.002 62.2681 26.0141 62.377 26.0202C57.6387 21.6658 51.4353 19.2539 45 19.2641C36.006 19.2641 28.1008 23.879 23.498 30.8649C24.1028 30.8831 24.6714 30.8952 25.1552 30.8952C27.8468 30.8952 32.0141 30.5685 32.0141 30.5685C33.3992 30.4839 33.5625 32.5222 32.1774 32.6915C32.1774 32.6915 30.7802 32.8548 29.2319 32.9335L38.6008 60.8105L44.2319 43.9173L40.2278 32.9335C38.8367 32.8488 37.5242 32.6855 37.5242 32.6855C36.1391 32.6069 36.3024 30.4839 37.6875 30.5685C37.6875 30.5685 41.9395 30.8952 44.4677 30.8952C47.1593 30.8952 51.3266 30.5685 51.3266 30.5685C52.7177 30.4839 52.875 32.5222 51.4899 32.6855C51.4899 32.6855 50.0927 32.8488 48.5444 32.9335L57.8468 60.5988L60.4113 52.0222C61.5242 48.4597 62.371 45.9012 62.371 43.6996ZM45.4536 47.25L37.7298 69.6895C42.9148 71.2133 48.4476 71.0695 53.5464 69.2782C53.4728 69.1664 53.4119 69.0467 53.3649 68.9214L45.4536 47.25ZM67.5786 32.6492C67.6985 33.5271 67.7571 34.4123 67.754 35.2984C67.754 37.9113 67.2641 40.8448 65.7944 44.5161L57.9375 67.246C65.5887 62.7823 70.7359 54.496 70.7359 45C70.7424 40.6826 69.6563 36.4338 67.5786 32.6492ZM75 45C75 61.5423 61.5423 75 45 75C28.4577 75 15 61.5423 15 45C15 28.4577 28.4577 15 45 15C61.5423 15 75 28.4577 75 45ZM73.621 45C73.621 29.2137 60.7802 16.373 45 16.373C29.2198 16.373 16.373 29.2137 16.373 45C16.373 60.7863 29.2137 73.627 45 73.627C60.7863 73.627 73.621 60.7863 73.621 45Z" fill="#21759B"/>
</svg>
