<?xml version="1.0" encoding="utf-8"?>
<!-- Generator: Adobe Illustrator 25.0.1, SVG Export Plug-In . SVG Version: 6.00 Build 0)  -->
<svg version="1.1" id="圖層_1" xmlns="http://www.w3.org/2000/svg" xmlns:xlink="http://www.w3.org/1999/xlink" x="0px" y="0px"
	 viewBox="0 0 32 32" style="enable-background:new 0 0 32 32;" xml:space="preserve">
<style type="text/css">
	.st0{fill:#FFFFFF;}
</style>
<g id="组_944" transform="translate(6 3)">
	<g transform="matrix(1, 0, 0, 1, -6, -3)">
		<path id="路径_1142-2" class="st0" d="M16.8,7.91v5.03h-5.84V7.91c-2.22,1.62-2.7,4.72-1.09,6.94c0.44,0.61,1.02,1.1,1.68,1.46
			l0.54,0.29V32h3.59V16.59l0.54-0.29c2.42-1.29,3.34-4.3,2.05-6.72C17.9,8.93,17.41,8.36,16.8,7.91L16.8,7.91z"/>
	</g>
	<g transform="matrix(1, 0, 0, 1, -6, -3)">
		<path id="路径_1143-2" class="st0" d="M23.15,14.64l0.15-0.48l3.17-0.58v-3.25L23.3,9.76l-0.15-0.48
			c-0.18-0.57-0.42-1.12-0.72-1.65l-0.25-0.44l1.81-2.54l-2.42-2.3L18.9,4.08l-0.47-0.24c-0.56-0.28-1.14-0.51-1.73-0.68l-0.51-0.15
			L15.58,0h-3.42l-0.61,3.01l-0.51,0.15c-0.6,0.17-1.18,0.4-1.73,0.68L8.84,4.08L6.17,2.35l-2.42,2.3l1.81,2.54L5.32,7.63
			C5.02,8.16,4.78,8.71,4.6,9.28L4.44,9.76l-3.17,0.58v3.25l3.17,0.58l0.15,0.48c0.18,0.57,0.42,1.12,0.72,1.65l0.25,0.44
			l-1.81,2.54l2.42,2.3l2.67-1.72l0.47,0.24c0.38,0.19,0.78,0.36,1.19,0.51l0.06,0.02v-3.8c-1.68-1.02-2.72-2.83-2.73-4.8
			C7.87,9.5,9.53,7.3,11.95,6.58l1.16-0.37v4.97h1.53V6.21l1.16,0.37c2.41,0.72,4.08,2.92,4.12,5.44c-0.02,1.97-1.05,3.78-2.73,4.8
			v3.8l0.06-0.02c0.41-0.14,0.8-0.31,1.19-0.51l0.47-0.24l2.67,1.72l2.42-2.3l-1.81-2.54l0.25-0.44
			C22.72,15.77,22.96,15.22,23.15,14.64z"/>
	</g>
</g>
</svg>
