<?xml version="1.0" encoding="utf-8"?>
<!-- Generator: Adobe Illustrator 25.0.1, SVG Export Plug-In . SVG Version: 6.00 Build 0)  -->
<svg version="1.1" id="圖層_1" xmlns="http://www.w3.org/2000/svg" xmlns:xlink="http://www.w3.org/1999/xlink" x="0px" y="0px"
	 viewBox="0 0 32 32" style="enable-background:new 0 0 32 32;" xml:space="preserve">
<style type="text/css">
	.st0{fill:#FFFFFF;}
</style>
<g id="组_1" transform="translate(-5 -5.882)">
	<path id="路径_1133" class="st0" d="M29.57,15.21l-0.63-1.08l-0.74,0.43c-0.23,0.13-0.52,0.11-0.72-0.07
		c-0.3-0.25-0.64-0.44-1.01-0.57c-0.25-0.09-0.42-0.32-0.42-0.59v-0.78H24.8v0.78c0,0.26-0.17,0.5-0.42,0.59
		c-0.35,0.13-0.67,0.32-0.94,0.57c-0.2,0.17-0.49,0.2-0.72,0.07l-0.74-0.43l-0.63,1.08l0.73,0.42c0.23,0.13,0.35,0.4,0.3,0.66
		c-0.08,0.38-0.08,0.76,0,1.14c0.05,0.26-0.07,0.52-0.3,0.66l-0.73,0.42l0.63,1.08l0.74-0.43c0.23-0.13,0.52-0.11,0.72,0.07
		c0.31,0.25,0.65,0.44,1.03,0.57c0.25,0.09,0.42,0.32,0.42,0.59v0.8h1.25v-0.8c0-0.26,0.17-0.5,0.42-0.59
		c0.34-0.13,0.65-0.32,0.92-0.57c0.2-0.17,0.49-0.2,0.72-0.07l0.74,0.43l0.63-1.08l-0.73-0.42c-0.23-0.13-0.35-0.4-0.3-0.66
		c0.08-0.38,0.08-0.76,0-1.14c-0.05-0.26,0.07-0.52,0.3-0.66L29.57,15.21z M25.46,18.74c-1.04,0-1.88-0.84-1.88-1.88
		c0-1.04,0.84-1.88,1.88-1.88s1.88,0.84,1.88,1.88C27.34,17.9,26.5,18.74,25.46,18.74L25.46,18.74z"/>
	<path id="路径_1135" class="st0" d="M24.71,5.88c-6.5-0.01-11.78,5.26-11.78,11.76c0,2.82,1.01,5.54,2.84,7.68l-1.94,1.94
		l-2.08-2.08c-0.35-0.35-0.93-0.35-1.28,0s-0.35,0.93,0,1.28l0.8,0.8l-4.97,4.96c-1.06,1.06-1.06,2.79,0,3.85s2.79,1.06,3.85,0l0,0
		l4.98-4.96l0.8,0.8c0.35,0.35,0.93,0.35,1.28,0s0.35-0.93,0-1.28l0,0l-2.08-2.08l1.94-1.94c4.94,4.24,12.37,3.67,16.61-1.27
		s3.67-12.37-1.27-16.61C30.26,6.89,27.53,5.88,24.71,5.88z M31.07,18.15l1.32,0.76c0.43,0.25,0.58,0.81,0.33,1.24c0,0,0,0,0,0
		l-1.82,3.15c-0.25,0.43-0.81,0.58-1.24,0.33l-1.34-0.77c-0.25,0.19-0.51,0.36-0.79,0.5v1.47c0,0.5-0.41,0.91-0.91,0.91c0,0,0,0,0,0
		h-3.63c-0.47,0.03-0.87-0.31-0.91-0.78c0-0.02,0-0.03,0-0.05v-1.55c-0.32-0.14-0.64-0.31-0.94-0.5l-1.34,0.77
		c-0.43,0.25-0.99,0.1-1.24-0.33l-1.82-3.15c-0.25-0.43-0.1-0.99,0.33-1.24c0,0,0,0,0,0l1.32-0.76c-0.03-0.34-0.03-0.68,0-1.02
		l-1.32-0.76c-0.43-0.25-0.58-0.81-0.33-1.24c0,0,0,0,0,0l1.82-3.14c0.12-0.21,0.32-0.36,0.55-0.42c0.23-0.06,0.48-0.03,0.69,0.09
		l1.34,0.77c0.26-0.19,0.53-0.36,0.82-0.5v-1.55c0.03-0.5,0.45-0.89,0.95-0.86h3.63c0.46-0.02,0.85,0.34,0.86,0.8
		c0,0.02,0,0.04,0,0.06v1.55c0.32,0.14,0.62,0.31,0.91,0.5l1.34-0.77c0.43-0.25,0.99-0.1,1.24,0.33l1.81,3.15
		c0.25,0.43,0.1,0.99-0.33,1.24c0,0,0,0,0,0l-1.32,0.76C31.09,17.47,31.09,17.81,31.07,18.15L31.07,18.15z"/>
</g>
</svg>
