<svg id="组_951" data-name="组 951" xmlns="http://www.w3.org/2000/svg" width="24" height="32" viewBox="0 0 24 32">
  <path id="路径_1318" data-name="路径 1318" d="M997.595,635.515h6.764a.677.677,0,0,0,.676-.676v-2.706a.677.677,0,0,0-.676-.676h-1.469a2.03,2.03,0,0,0-3.827,0h-1.468a.677.677,0,0,0-.676.676v2.706A.677.677,0,0,0,997.595,635.515Z" transform="translate(-988.78 -630.104)" fill="#fff"/>
  <path id="路径_1319" data-name="路径 1319" d="M920.548,694.1h-2v3.139a3.076,3.076,0,0,1-3,3.139h-10a3.076,3.076,0,0,1-3-3.139V694.1h-2a2.051,2.051,0,0,0-2,2.092v25.11a2.025,2.025,0,0,0,2,2.092h20a2.025,2.025,0,0,0,2-2.092V696.2A2.025,2.025,0,0,0,920.548,694.1Zm-2.133,25.273H902.682a1.208,1.208,0,0,1-1.181-1.233v0a1.208,1.208,0,0,1,1.179-1.234h15.734a1.236,1.236,0,0,1,0,2.469Zm0-5.812H902.682a1.208,1.208,0,0,1-1.181-1.233v0a1.208,1.208,0,0,1,1.179-1.234h15.734a1.236,1.236,0,0,1,0,2.469Zm0-5.812H902.682a1.208,1.208,0,0,1-1.181-1.233v0a1.208,1.208,0,0,1,1.179-1.234h15.734a1.236,1.236,0,0,1,0,2.469Z" transform="translate(-898.548 -691.398)" fill="#fff"/>
</svg>
