<?xml version="1.0" encoding="utf-8"?>
<!-- Generator: Adobe Illustrator 25.0.1, SVG Export Plug-In . SVG Version: 6.00 Build 0)  -->
<svg version="1.1" id="圖層_1" xmlns="http://www.w3.org/2000/svg" xmlns:xlink="http://www.w3.org/1999/xlink" x="0px" y="0px"
	 viewBox="0 0 32 32" style="enable-background:new 0 0 32 32;" xml:space="preserve">
<style type="text/css">
	.st0{fill:url(#路径_1191_1_);}
	.st1{fill:url(#路径_1192_1_);}
	.st2{fill:url(#路径_1193_1_);}
</style>
<g id="组_935" transform="translate(-3638 -1226.333)">
	<g id="组_449" transform="translate(3638 1226.333)">
		<g id="meter" transform="translate(0 0)">
			
				<linearGradient id="路径_1191_1_" gradientUnits="userSpaceOnUse" x1="2.9832" y1="34.0878" x2="2.9832" y2="33.1552" gradientTransform="matrix(1.854 0 0 -1.854 10.47 77.2771)">
				<stop  offset="0" style="stop-color:#FFFFFF"/>
				<stop  offset="1" style="stop-color:#FFFFFF"/>
			</linearGradient>
			<path id="路径_1191" class="st0" d="M16,14.08c-0.48,0-0.86,0.39-0.86,0.86s0.39,0.86,0.86,0.86c0.48,0,0.86-0.39,0.86-0.86
				C16.87,14.47,16.48,14.08,16,14.08C16,14.08,16,14.08,16,14.08z"/>
			
				<linearGradient id="路径_1192_1_" gradientUnits="userSpaceOnUse" x1="1.6122" y1="33.0414" x2="1.6122" y2="32.1088" gradientTransform="matrix(24.5 0 0 -24.1454 -23.5 797.7966)">
				<stop  offset="0" style="stop-color:#FFFFFF"/>
				<stop  offset="1" style="stop-color:#FFFFFF"/>
			</linearGradient>
			<path id="路径_1192" class="st1" d="M16,22.52c6.26,0.03,11.37-5,11.42-11.26C27.37,5,22.26-0.03,16,0
				C9.74-0.03,4.63,5,4.58,11.26C4.63,17.52,9.74,22.55,16,22.52z M16.93,17.2v1.85h-1.87V17.2c-1.37-0.48-2.09-1.98-1.61-3.34
				c0.26-0.75,0.86-1.35,1.61-1.61V8.66h1.87v3.59c1.37,0.48,2.09,1.98,1.61,3.34C18.28,16.34,17.69,16.94,16.93,17.2L16.93,17.2z
				 M8.09,11.17C8.53,6.74,11.94,3.41,16,3.41s7.47,3.33,7.91,7.76l0.11,1H20.4v-1.84h1.49c-0.21-0.89-0.59-1.74-1.11-2.49l-1.02,1
				l-1.32-1.3l1.05-1.04c-0.74-0.61-1.62-1.01-2.56-1.18v1.59h-1.87V5.33C14.12,5.5,13.24,5.9,12.5,6.51l1.05,1.04l-1.32,1.3
				l-1.02-1.01c-0.52,0.76-0.89,1.6-1.11,2.49h1.49v1.84H7.98L8.09,11.17z"/>
			
				<linearGradient id="路径_1193_1_" gradientUnits="userSpaceOnUse" x1="1.6338" y1="33.3904" x2="1.6338" y2="32.4578" gradientTransform="matrix(20.557 0 0 -6.918 -17.584 254.542)">
				<stop  offset="0" style="stop-color:#FFFFFF"/>
				<stop  offset="1" style="stop-color:#FFFFFF"/>
			</linearGradient>
			<path id="路径_1193" class="st2" d="M18.62,26.32h1.74v-2.77c-2.8,1.08-5.91,1.08-8.71,0v2.77h1.74v1.84H6.42V30h19.17v-1.84
				h-6.97V26.32z"/>
		</g>
	</g>
</g>
</svg>
