<?xml version="1.0" encoding="utf-8"?>
<!-- Generator: Adobe Illustrator 25.0.1, SVG Export Plug-In . SVG Version: 6.00 Build 0)  -->
<svg version="1.1" id="圖層_1" xmlns="http://www.w3.org/2000/svg" xmlns:xlink="http://www.w3.org/1999/xlink" x="0px" y="0px"
	 viewBox="0 0 56 56" style="enable-background:new 0 0 56 56;" xml:space="preserve">
<style type="text/css">
	.st0{fill:url(#路径_1_1_);}
	.st1{fill:url(#路径_2_1_);}
	.st2{fill:url(#路径_3_1_);}
	.st3{fill:url(#路径_4-2_1_);}
	.st4{fill:url(#路径_5_1_);}
	.st5{fill:url(#路径_6_1_);}
	.st6{fill:url(#路径_7_1_);}
	.st7{fill:url(#路径_8_1_);}
</style>
<g id="组_15" transform="translate(0 0)">
	
		<linearGradient id="路径_1_1_" gradientUnits="userSpaceOnUse" x1="-766.2455" y1="549.4611" x2="-765.2435" y2="549.4611" gradientTransform="matrix(27.5962 0 0 -27.6054 21169.6484 15185.7256)">
		<stop  offset="0" style="stop-color:#3F9CD4"/>
		<stop  offset="1" style="stop-color:#2AB5BB"/>
	</linearGradient>
	<path id="路径_1" class="st0" d="M48,31.4c-1,0-2-0.4-2.7-1.1L25.4,10.4c-1.5-1.5-1.5-4,0-5.5s4-1.5,5.5,0l19.8,19.8
		c1.5,1.5,1.5,4,0,5.5C50,31,49,31.4,48,31.4z"/>
	
		<linearGradient id="路径_2_1_" gradientUnits="userSpaceOnUse" x1="-767.0131" y1="550.0016" x2="-766.0131" y2="550.0016" gradientTransform="matrix(28.3566 0 0 -28.4301 21773.3242 15653.8721)">
		<stop  offset="0" style="stop-color:#2AB5BB"/>
		<stop  offset="1" style="stop-color:#3F9CD4"/>
	</linearGradient>
	<path id="路径_2" class="st1" d="M28,3.8c1,0,2,0.4,2.7,1.1L50,24.2c1.5,1.5,1.5,3.9,0,5.3c-1.5,1.5-3.9,1.5-5.3,0l0,0L25.3,10.3
		c-1.5-1.5-1.5-3.8,0-5.3c0,0,0,0,0,0C26,4.2,27,3.8,28,3.8 M28,3.1c-1.2,0-2.4,0.5-3.2,1.3c-0.9,0.8-1.3,2-1.3,3.2
		c0,1.2,0.5,2.4,1.3,3.2l19.3,19.4c0.8,0.9,2,1.3,3.2,1.3c1.2,0,2.4-0.5,3.2-1.3c1.8-1.7,1.8-4.6,0-6.3c0,0,0,0,0,0L31.2,4.4
		C30.4,3.5,29.2,3,28,3.1L28,3.1z"/>
	
		<linearGradient id="路径_3_1_" gradientUnits="userSpaceOnUse" x1="-699.6969" y1="550.2816" x2="-698.7109" y2="550.2816" gradientTransform="matrix(8.314 0 0 -28.8767 5821.2368 15928.6934)">
		<stop  offset="0" style="stop-color:#3F9CD4"/>
		<stop  offset="1" style="stop-color:#2AB5BB"/>
	</linearGradient>
	<path id="路径_3" class="st2" d="M6.1,25c0.8-0.7,1.9-1.1,2.9-1.1c2.2-0.1,4,1.6,4.2,3.8V49c-0.1,2.2-2,3.9-4.2,3.8
		c-2.2,0.1-4-1.6-4.2-3.8V27.8C4.9,26.7,5.3,25.7,6.1,25z"/>
	<g transform="matrix(1, 0, 0, 1, -6, 0)">
		
			<linearGradient id="路径_4-2_1_" gradientUnits="userSpaceOnUse" x1="-701.4038" y1="551.1875" x2="-700.4038" y2="551.1875" gradientTransform="matrix(9.056 0 0 -30.4238 6362.0415 16806.9414)">
			<stop  offset="0" style="stop-color:#2AB5BB"/>
			<stop  offset="1" style="stop-color:#3F9CD4"/>
		</linearGradient>
		<path id="路径_4-2" class="st3" d="M14.6,23.3c2.1,0,3.8,1.7,3.8,3.8v21.3c0,2.1-1.7,3.8-3.8,3.8s-3.8-1.7-3.8-3.8V27
			c0-1,0.4-2,1.1-2.7C12.6,23.6,13.6,23.2,14.6,23.3 M14.6,22.5c-1.2,0-2.4,0.5-3.2,1.3c-0.9,0.8-1.3,2-1.3,3.2v21.3
			c0,2.5,2,4.6,4.5,4.6c2.5,0,4.6-2,4.6-4.5c0,0,0-0.1,0-0.1V27C19.2,24.6,17.2,22.5,14.6,22.5C14.7,22.5,14.7,22.5,14.6,22.5
			L14.6,22.5z"/>
	</g>
	
		<linearGradient id="路径_5_1_" gradientUnits="userSpaceOnUse" x1="-766.2425" y1="549.4613" x2="-765.2425" y2="549.4613" gradientTransform="matrix(27.5962 0 0 -27.6057 21150.0371 15185.4551)">
		<stop  offset="0" style="stop-color:#3F9CD4"/>
		<stop  offset="1" style="stop-color:#2AB5BB"/>
	</linearGradient>
	<path id="路径_5" class="st4" d="M8.6,31c-2.1,0-3.9-1.8-3.9-3.9c0-1,0.4-2,1.1-2.7L25.7,4.5c1.5-1.5,4-1.5,5.5,0s1.5,4,0,5.5
		l0,0L11.2,29.8C10.6,30.6,9.6,31,8.6,31z"/>
	
		<linearGradient id="路径_6_1_" gradientUnits="userSpaceOnUse" x1="-767.0653" y1="550.0013" x2="-766.0663" y2="550.0013" gradientTransform="matrix(28.4075 0 0 -28.4296 21794.5664 15653.5713)">
		<stop  offset="0" style="stop-color:#2AB5BB"/>
		<stop  offset="1" style="stop-color:#3F9CD4"/>
	</linearGradient>
	<path id="路径_6" class="st5" d="M28,3.8c2.1,0,3.8,1.7,3.8,3.8c0,1-0.4,2-1.1,2.7L11.4,29.6C9.9,31,7.5,31,6,29.5
		c-1.4-1.5-1.4-3.8,0-5.3L25.3,4.9C26,4.2,27,3.8,28,3.8 M28,3.1c-1.2,0-2.4,0.5-3.2,1.3L5.5,23.8c-1.8,1.8-1.8,4.6,0,6.4
		c0.8,0.8,2,1.3,3.2,1.3c1.2,0,2.4-0.5,3.2-1.3l19.4-19.4c1.8-1.7,1.8-4.6,0-6.3c0,0,0,0,0,0C30.4,3.6,29.2,3.1,28,3.1L28,3.1z"/>
	
		<linearGradient id="路径_7_1_" gradientUnits="userSpaceOnUse" x1="-755.7181" y1="542.7284" x2="-754.7151" y2="542.7284" gradientTransform="matrix(20.2007 0 0 -20.2792 15284.5635 11045.4297)">
		<stop  offset="0" style="stop-color:#3F9CD4"/>
		<stop  offset="1" style="stop-color:#2AB5BB"/>
	</linearGradient>
	<path id="路径_7" class="st6" d="M22.1,49.5c-2,0-3.6-1.6-3.6-3.6V32.8c0-2,1.6-3.6,3.6-3.6h13.1c0.9,0,1.8,0.4,2.5,1
		c0.7,0.7,1,1.6,1,2.5c0,2-1.6,3.6-3.6,3.6h-9.5v9.6c0.1,2-1.5,3.6-3.4,3.6C22.2,49.5,22.1,49.5,22.1,49.5L22.1,49.5z"/>
	<g id="组_4" transform="translate(13.806 25.533)">
		
			<linearGradient id="路径_8_1_" gradientUnits="userSpaceOnUse" x1="-770.7606" y1="517.8218" x2="-769.7606" y2="517.8218" gradientTransform="matrix(20.857 0 0 -20.7927 16079.9072 10780.3594)">
			<stop  offset="0" style="stop-color:#2AB5BB"/>
			<stop  offset="1" style="stop-color:#3F9CD4"/>
		</linearGradient>
		<path id="路径_8" class="st7" d="M20.9,3.8c0.9,0,1.7,0.3,2.4,1c0.6,0.6,1,1.5,1,2.4c0,1.9-1.5,3.4-3.4,3.4h-9.1v9.1
			c0,1.9-1.5,3.4-3.4,3.4c-1.9,0-3.4-1.5-3.4-3.4l0,0V7.2c0-1.9,1.5-3.4,3.4-3.4L20.9,3.8 M20.9,3.1H8.3C6,3.1,4.1,4.9,4.1,7.2
			c0,0,0,0,0,0v12.5c0,2.3,1.9,4.1,4.2,4.1c2.2,0,4.1-1.8,4.1-4.1v-8.4h8.4c2.3,0,4.2-1.9,4.2-4.1c0,0,0,0,0,0
			c0-1.1-0.4-2.1-1.2-2.9C23,3.5,22,3.1,20.9,3.1L20.9,3.1z"/>
	</g>
</g>
</svg>
